<svg id="Camada_1" data-name="Camada 1" xmlns="http://www.w3.org/2000/svg" viewBox="0 0 1133.86 849.86"><defs><style>.cls-1{fill:#616160;}</style></defs><title>svg-charts</title><path class="cls-1" d="M1106.45,705.91a24.74,24.74,0,0,1,7.48,18.16v85.47a25.54,25.54,0,0,1-25.64,25.64H45.57a24.74,24.74,0,0,1-18.16-7.48,24.72,24.72,0,0,1-7.48-18.16V40.32a24.7,24.7,0,0,1,7.48-18.16,24.7,24.7,0,0,1,18.16-7.48H131a24.7,24.7,0,0,1,18.16,7.48,24.7,24.7,0,0,1,7.48,18.16V698.43h931.61A24.72,24.72,0,0,1,1106.45,705.91ZM635.3,339.46,453.68,95.88q-8.55-10.69-22.43-9.62T411,98L225.05,407.84V630.05h820.51L853.25,228.35q-4.28-10.68-16-13.89t-20.3,5.34v-2.13Z"/></svg>